<svg xmlns="http://www.w3.org/2000/svg" xmlns:xlink="http://www.w3.org/1999/xlink" viewBox="0 0 50 50" version="1.1">
<g id="surface1">
<path style=" " d="M 18.5 2.5625 C 14.363281 2.5625 11 5.925781 11 10.0625 C 11 11.191406 11.261719 12.273438 11.75 13.28125 C 15.414063 11.058594 19.523438 9.9375 24.25 9.9375 C 24.839844 9.9375 25.414063 9.996094 26 10.03125 C 25.976563 5.914063 22.621094 2.5625 18.5 2.5625 Z M 37.28125 6.96875 C 37.191406 6.964844 37.089844 6.976563 37 7 C 33.597656 7.855469 31.175781 9.644531 29.65625 12.5 C 27.898438 12.128906 26.101563 11.9375 24.25 11.9375 C 18.984375 11.9375 14.539063 13.410156 10.6875 16.40625 C 8.855469 17.832031 7.5 19.742188 6.65625 22 C 5.863281 21.722656 4 20.871094 4 18.78125 C 4 17.699219 4.503906 16.800781 5.34375 16.4375 C 5.851563 16.21875 6.09375 15.632813 5.875 15.125 C 5.65625 14.617188 5.066406 14.375 4.5625 14.59375 C 3.003906 15.265625 2 16.917969 2 18.78125 C 2 21.824219 4.445313 23.394531 6.09375 23.9375 C 5.75 25.441406 5.585938 27.058594 5.65625 28.78125 C 5.851563 33.410156 9.179688 36.742188 11.21875 38.375 C 11.5 38.589844 11.492188 38.582031 11.40625 38.84375 C 11.097656 39.785156 10.546875 41.144531 10.53125 41.1875 C 10.273438 41.867188 10.296875 42.617188 10.59375 43.28125 C 10.890625 43.945313 11.414063 44.429688 12.09375 44.6875 L 15.3125 45.90625 C 16.675781 46.425781 18.328125 45.695313 18.84375 44.34375 C 18.84375 44.34375 19.246094 43.242188 19.59375 42.3125 C 19.628906 42.21875 19.664063 42.144531 19.6875 42.09375 C 19.828125 42.113281 20.042969 42.144531 20.25 42.1875 C 21.058594 42.355469 22.28125 42.625 24.25 42.625 C 26.019531 42.625 27.203125 42.492188 28 42.40625 C 28.371094 42.367188 28.652344 42.3125 28.875 42.3125 C 28.890625 42.34375 28.917969 42.386719 28.9375 42.4375 C 29.257813 43.402344 29.652344 44.34375 29.65625 44.34375 C 30.050781 45.394531 31.0625 46.09375 32.1875 46.09375 C 32.519531 46.09375 32.847656 46.023438 33.15625 45.90625 L 36.375 44.6875 C 37.054688 44.429688 37.578125 43.945313 37.875 43.28125 C 38.171875 42.617188 38.195313 41.859375 37.9375 41.1875 L 37.4375 39.84375 C 37.417969 39.792969 37.402344 39.765625 37.375 39.71875 C 37.375 39.71875 37.394531 39.652344 37.5625 39.5625 C 39.925781 38.277344 41.828125 36.261719 43.03125 33.75 C 43.253906 33.28125 43.347656 33.15625 43.75 33.15625 L 45.375 33.15625 C 46.820313 33.15625 48 31.976563 48 30.53125 L 48 25.65625 C 48 24.207031 46.820313 23.03125 45.375 23.03125 L 43.75 23.03125 C 43.578125 23.03125 43.46875 22.992188 43.40625 22.96875 C 43.125 21.359375 41.863281 16.722656 36.625 14.5625 C 36.683594 12.628906 37.175781 11.050781 38.1875 8.3125 C 38.316406 7.964844 38.246094 7.558594 38 7.28125 C 37.8125 7.074219 37.550781 6.976563 37.28125 6.96875 Z M 36.46875 23.09375 C 37.523438 23.09375 38.375 23.945313 38.375 25 C 38.375 26.054688 37.523438 26.9375 36.46875 26.9375 C 35.410156 26.9375 34.5625 26.058594 34.5625 25 C 34.5625 23.945313 35.410156 23.09375 36.46875 23.09375 Z "></path>
</g>
</svg>