<svg xmlns="http://www.w3.org/2000/svg" viewBox="0 0 50 50">
    <path d="M 25 2 C 21.655 2 18.734766 3.9007813 17.259766 6.6757812 C 16.528766 6.4837812 15.778344 6.3886719 15.027344 6.3886719 C 12.808344 6.3886719 10.591203 7.2252031 8.9082031 8.9082031 C 6.6552031 11.161203 5.9177812 14.370766 6.6757812 17.259766 C 3.9017813 18.734766 2 21.655 2 25 C 2 28.345 3.9007813 31.265234 6.6757812 32.740234 C 5.9177812 35.628234 6.6571562 38.838797 8.9101562 41.091797 C 10.593156 42.774797 12.810297 43.611328 15.029297 43.611328 C 15.780297 43.611328 16.531719 43.516219 17.261719 43.324219 C 18.735719 46.099219 21.655 48 25 48 C 28.345 48 31.265234 46.099219 32.740234 43.324219 C 33.471234 43.516219 34.221656 43.611328 34.972656 43.611328 C 37.191656 43.611328 39.408797 42.774797 41.091797 41.091797 C 43.344797 38.838797 44.082219 35.629234 43.324219 32.740234 C 46.098219 31.265234 48 28.345 48 25 C 48 21.655 46.099219 18.734766 43.324219 17.259766 C 44.082219 14.371766 43.342844 11.161203 41.089844 8.9082031 C 39.406844 7.2252031 37.189703 6.3886719 34.970703 6.3886719 C 34.219703 6.3886719 33.468281 6.4837812 32.738281 6.6757812 C 31.264281 3.9007813 28.345 2 25 2 z M 25 4.1894531 C 27.428 4.1894531 29.654641 5.535125 30.806641 7.703125 L 31.619141 9.234375 L 33.296875 8.7949219 C 33.841875 8.6519219 34.405656 8.578125 34.972656 8.578125 C 36.707656 8.578125 38.330969 9.2460312 39.542969 10.457031 C 41.156969 12.071031 41.795031 14.464125 41.207031 16.703125 L 40.767578 18.380859 L 42.296875 19.193359 C 44.463875 20.345359 45.810547 22.572 45.810547 25 C 45.810547 27.428 44.464875 29.654641 42.296875 30.806641 L 40.767578 31.619141 L 41.207031 33.296875 C 41.794031 35.535875 41.156969 37.928969 39.542969 39.542969 C 38.330969 40.754969 36.706656 41.421875 34.972656 41.421875 C 34.406656 41.421875 33.842875 41.349078 33.296875 41.205078 L 31.619141 40.765625 L 30.806641 42.296875 C 29.654641 44.463875 27.428 45.810547 25 45.810547 C 22.572 45.810547 20.345359 44.464875 19.193359 42.296875 L 18.380859 40.765625 L 16.703125 41.205078 C 16.158125 41.348078 15.594344 41.421875 15.027344 41.421875 C 13.292344 41.421875 11.669031 40.753969 10.457031 39.542969 C 8.8430312 37.928969 8.2049687 35.535875 8.7929688 33.296875 L 9.2324219 31.619141 L 7.703125 30.806641 C 5.537125 29.654641 4.1894531 27.428 4.1894531 25 C 4.1894531 22.572 5.535125 20.345359 7.703125 19.193359 L 9.234375 18.380859 L 8.7949219 16.703125 C 8.2079219 14.464125 8.8430313 12.071031 10.457031 10.457031 C 11.669031 9.2450313 13.293344 8.578125 15.027344 8.578125 C 15.593344 8.578125 16.157125 8.6509219 16.703125 8.7949219 L 18.380859 9.234375 L 19.195312 7.703125 C 20.346312 5.536125 22.572 4.1894531 25 4.1894531 z M 25 15 C 22.233333 15 20.374655 16.176225 19.335938 17.511719 C 18.29722 18.847213 18 20.166667 18 21 L 18 22 L 20 22 L 20 21 C 20 20.833333 20.20278 19.652787 20.914062 18.738281 C 21.625345 17.823775 22.766667 17 25 17 C 27.233333 17 28.374655 17.823775 29.085938 18.738281 C 29.79722 19.652787 30 20.833333 30 21 C 30 22.05 29.726373 22.646722 29.28125 23.203125 C 28.836127 23.759528 28.164613 24.251052 27.400391 24.824219 C 25.871946 25.970552 24 27.666667 24 31 L 26 31 C 26 28.333333 27.128054 27.529448 28.599609 26.425781 C 29.335387 25.873948 30.163873 25.302972 30.84375 24.453125 C 31.523627 23.603278 32 22.45 32 21 C 32 20.166667 31.70278 18.847213 30.664062 17.511719 C 29.625345 16.176225 27.766667 15 25 15 z M 24 33 L 24 35 L 26 35 L 26 33 L 24 33 z"></path>
</svg>